# xmcd
#
# Track frame offsets: 
#        150
#        19622
#        34020
#        43877
#        56757
#        69145
#        85325
#        100212
#        127985
#        142390
#        164752
#        178157
#        192280
#        195150
#
# Disc length: 3003 seconds
#
# Revision: 3
# Processed by: cddbd v1.5.2PL0 Copyright (c) Steve Scherf et al.
# Submitted via: ExactAudioCopy v0.99pb5
#
DISCID=c50bb90e
DTITLE=Fred McDowell - The First Recordings
DYEAR=1900
DGENRE=Blues
TTITLE0=Going Down The River
TTITLE1=61 Highway
TTITLE2=Wished I Was In Heaven Sitting Down
TTITLE3=When The Train Comes Along
TTITLE4=Shake "Em On Down
TTITLE5=Worried Mind
TTITLE6=Woke Up This Morning With My Mind On Jesus
TTITLE7=You Done Told Everybody
TTITLE8=Keep Your Lamps Trimmed And Burning
TTITLE9=What's The Matter Now
TTITLE10=Good Morning Little Schoolgirl
TTITLE11=I Want Jesus To Walk With Me
TTITLE12=Keep Your Lamps Trimmed And Burning (Instrumental)
TTITLE13=You're Gonna Be Sorry
EXTD=
EXTT0=
EXTT1=
EXTT2=
EXTT3=
EXTT4=
EXTT5=
EXTT6=
EXTT7=
EXTT8=
EXTT9=
EXTT10=
EXTT11=
EXTT12=
EXTT13=
PLAYORDER=
